<svg width="446" height="72" viewBox="0 0 446 72" fill="none" xmlns="http://www.w3.org/2000/svg">
<path d="M38.5316 0V23.0998C34.8893 20.0326 30.2885 18.4031 24.8251 18.4031C10.1601 18.4031 0 29.7134 0 44.8577C0 60.0019 10.5435 71.3122 25.2085 71.3122C31.247 71.3122 36.1353 69.2994 39.7776 65.7529V70.0662H54.5385V0H38.5316ZM27.5089 57.2223C20.7035 57.2223 15.9111 52.0464 15.9111 44.8577C15.9111 37.6689 20.7994 32.3972 27.5089 32.3972C34.5059 32.3972 39.2025 37.4772 39.2025 44.8577C39.2025 52.1423 34.5059 57.2223 27.5089 57.2223Z" fill="#333333"/>
<path d="M73.9578 49.5543H110.572C110.764 48.2124 110.956 46.2954 110.956 43.8033C110.956 31.3429 101.179 18.3073 84.693 18.3073C70.1238 18.3073 58.4301 30.2885 58.4301 44.8577C58.4301 59.9061 68.9736 71.3122 85.6515 71.3122C98.2078 71.3122 104.534 66.2322 108.56 60.9604L96.5783 53.0049C94.5655 56.3596 91.7858 58.2766 86.1307 58.2766C80.0922 58.2766 75.5872 55.2094 73.9578 49.5543ZM73.7661 39.5859C75.108 33.4516 79.2295 30.2885 85.0764 30.2885C90.9232 30.2885 94.7572 33.835 96.0991 39.5859H73.7661Z" fill="#333333"/>
<path d="M146.064 19.5533L135.233 54.3468L124.498 19.5533H108.012L125.936 70.0662H144.627L162.551 19.5533H146.064Z" fill="#333333"/>
<path d="M199.637 19.5533V24.8251C196.091 21.2786 191.298 19.3616 185.068 19.3616C170.403 19.3616 159.859 29.7134 159.859 44.8577C159.859 60.0019 170.403 71.3122 185.068 71.3122C191.298 71.3122 196.091 69.2035 199.637 65.4654V70.0662H214.398V19.5533H199.637ZM187.368 57.2223C180.563 57.2223 175.77 52.0464 175.77 44.8577C175.77 37.6689 180.659 32.3972 187.368 32.3972C194.365 32.3972 199.062 37.4772 199.062 44.8577C199.062 52.1423 194.365 57.2223 187.368 57.2223Z" fill="#333333"/>
<path d="M280.496 18.3073C272.732 18.3073 267.365 20.9911 264.393 24.9209C261.614 20.6077 256.917 18.3073 249.632 18.3073C243.594 18.3073 238.801 20.5118 235.638 23.6749V19.5533H220.59V69.9703H236.597V40.4486C236.597 36.7104 238.993 32.4931 244.552 32.4931C249.728 32.4931 252.124 36.8063 252.124 41.5988V69.9703H268.131V40.4486C268.131 36.8063 270.528 32.4931 276.087 32.4931C281.263 32.4931 283.659 36.8063 283.659 41.5988V69.9703H299.666V38.5316C299.666 27.5089 293.244 18.3073 280.496 18.3073Z" fill="#333333"/>
<path d="M318.742 49.5543H355.356C355.548 48.2124 355.74 46.2954 355.74 43.8033C355.74 31.3429 345.963 18.3073 329.477 18.3073C314.908 18.3073 303.214 30.2885 303.214 44.8577C303.214 59.9061 313.757 71.3122 330.435 71.3122C342.991 71.3122 349.318 66.2322 353.343 60.9604L341.362 53.0049C339.349 56.3596 336.57 58.2766 330.914 58.2766C324.876 58.2766 320.371 55.2094 318.742 49.5543ZM318.55 39.5859C319.892 33.4516 324.013 30.2885 329.86 30.2885C335.707 30.2885 339.541 33.835 340.883 39.5859H318.55Z" fill="#333333"/>
<path d="M372.87 49.5543H409.485C409.677 48.2124 409.868 46.2954 409.868 43.8033C409.868 31.3429 400.092 18.3073 383.606 18.3073C369.036 18.3073 357.343 30.2885 357.343 44.8577C357.343 59.9061 367.886 71.3122 384.564 71.3122C397.12 71.3122 403.446 66.2322 407.472 60.9604L395.491 53.0049C393.478 56.3596 390.698 58.2766 385.043 58.2766C379.005 58.2766 374.5 55.2094 372.87 49.5543ZM372.679 39.5859C374.021 33.4516 378.142 30.2885 383.989 30.2885C389.836 30.2885 393.67 33.835 395.012 39.5859H372.679Z" fill="#333333"/>
<path d="M437.374 70.0662H446V56.1679H440.728C436.223 56.1679 433.635 53.58 433.635 48.6917V33.164H445.712V19.5533H434.21V6.13438H418.683V13.8982C418.683 17.6363 416.862 19.5533 413.315 19.5533H409.29V33.164H417.724V50.6087C417.724 62.3023 424.338 70.0662 437.374 70.0662Z" fill="#333333"/>
</svg>
